<mxfile host="app.diagrams.net" modified="2023-12-02T15:29:14.404Z" agent="Mozilla/5.0 (X11; Linux x86_64) AppleWebKit/537.36 (KHTML, like Gecko) Chrome/119.0.0.0 Safari/537.36" etag="gRC7NNofUpG9S9azkbYO" version="22.1.5" type="github">
  <diagram id="C5RBs43oDa-KdzZeNtuy" name="Page-1">
    <mxGraphModel dx="1800" dy="2249" grid="1" gridSize="14" guides="1" tooltips="1" connect="1" arrows="1" fold="1" page="1" pageScale="1" pageWidth="827" pageHeight="1169" math="0" shadow="0">
      <root>
        <mxCell id="WIyWlLk6GJQsqaUBKTNV-0" />
        <mxCell id="WIyWlLk6GJQsqaUBKTNV-1" parent="WIyWlLk6GJQsqaUBKTNV-0" />
        <mxCell id="w1sZ0uJOVQBLWdCTySW3-2" value="" style="edgeStyle=orthogonalEdgeStyle;rounded=0;orthogonalLoop=1;jettySize=auto;html=1;labelBackgroundColor=none;fontColor=default;noEdgeStyle=1;orthogonal=1;" parent="WIyWlLk6GJQsqaUBKTNV-1" source="w1sZ0uJOVQBLWdCTySW3-0" target="w1sZ0uJOVQBLWdCTySW3-1" edge="1">
          <mxGeometry relative="1" as="geometry" />
        </mxCell>
        <mxCell id="w1sZ0uJOVQBLWdCTySW3-0" value="words = [&quot;APPLE&quot;,&quot;ORANGE&quot;]" style="rounded=0;whiteSpace=wrap;html=1;labelBackgroundColor=none;" parent="WIyWlLk6GJQsqaUBKTNV-1" vertex="1">
          <mxGeometry x="455.5" y="1" width="175" height="60" as="geometry" />
        </mxCell>
        <mxCell id="w1sZ0uJOVQBLWdCTySW3-4" value="" style="edgeStyle=orthogonalEdgeStyle;rounded=0;orthogonalLoop=1;jettySize=auto;html=1;labelBackgroundColor=none;fontColor=default;noEdgeStyle=1;orthogonal=1;" parent="WIyWlLk6GJQsqaUBKTNV-1" source="w1sZ0uJOVQBLWdCTySW3-1" target="w1sZ0uJOVQBLWdCTySW3-3" edge="1">
          <mxGeometry relative="1" as="geometry" />
        </mxCell>
        <mxCell id="w1sZ0uJOVQBLWdCTySW3-1" value="int genedRanNo = genRandomNumber()" style="rounded=0;whiteSpace=wrap;html=1;labelBackgroundColor=none;" parent="WIyWlLk6GJQsqaUBKTNV-1" vertex="1">
          <mxGeometry x="418" y="91" width="250" height="50" as="geometry" />
        </mxCell>
        <mxCell id="w1sZ0uJOVQBLWdCTySW3-7" style="edgeStyle=orthogonalEdgeStyle;rounded=0;orthogonalLoop=1;jettySize=auto;html=1;exitX=0.5;exitY=1;exitDx=0;exitDy=0;entryX=0.5;entryY=0;entryDx=0;entryDy=0;labelBackgroundColor=none;fontColor=default;noEdgeStyle=1;orthogonal=1;" parent="WIyWlLk6GJQsqaUBKTNV-1" source="w1sZ0uJOVQBLWdCTySW3-3" target="w1sZ0uJOVQBLWdCTySW3-5" edge="1">
          <mxGeometry relative="1" as="geometry" />
        </mxCell>
        <mxCell id="w1sZ0uJOVQBLWdCTySW3-3" value="chosenWord = words[genedRanNo]" style="whiteSpace=wrap;html=1;rounded=0;align=center;labelBackgroundColor=none;" parent="WIyWlLk6GJQsqaUBKTNV-1" vertex="1">
          <mxGeometry x="416.75" y="171" width="252.5" height="40" as="geometry" />
        </mxCell>
        <mxCell id="5-vpQNmmnJ2SP2pBPLF3-4" value="" style="edgeStyle=orthogonalEdgeStyle;rounded=0;orthogonalLoop=1;jettySize=auto;html=1;" parent="WIyWlLk6GJQsqaUBKTNV-1" source="w1sZ0uJOVQBLWdCTySW3-5" target="5-vpQNmmnJ2SP2pBPLF3-3" edge="1">
          <mxGeometry relative="1" as="geometry" />
        </mxCell>
        <mxCell id="w1sZ0uJOVQBLWdCTySW3-5" value="int wannaplay = 1" style="whiteSpace=wrap;html=1;rounded=0;align=center;labelBackgroundColor=none;" parent="WIyWlLk6GJQsqaUBKTNV-1" vertex="1">
          <mxGeometry x="416.75" y="241" width="252.5" height="40" as="geometry" />
        </mxCell>
        <mxCell id="w1sZ0uJOVQBLWdCTySW3-25" value="" style="edgeStyle=orthogonalEdgeStyle;rounded=0;orthogonalLoop=1;jettySize=auto;html=1;noEdgeStyle=1;" parent="WIyWlLk6GJQsqaUBKTNV-1" source="w1sZ0uJOVQBLWdCTySW3-16" target="w1sZ0uJOVQBLWdCTySW3-24" edge="1">
          <mxGeometry relative="1" as="geometry" />
        </mxCell>
        <mxCell id="w1sZ0uJOVQBLWdCTySW3-16" value="while (wannaplay)" style="rhombus;whiteSpace=wrap;html=1;rounded=0;labelBackgroundColor=none;" parent="WIyWlLk6GJQsqaUBKTNV-1" vertex="1">
          <mxGeometry x="486.5" y="378" width="113" height="80" as="geometry" />
        </mxCell>
        <mxCell id="w1sZ0uJOVQBLWdCTySW3-33" value="" style="edgeStyle=orthogonalEdgeStyle;rounded=0;orthogonalLoop=1;jettySize=auto;html=1;fontFamily=Helvetica;fontSize=12;fontColor=default;" parent="WIyWlLk6GJQsqaUBKTNV-1" source="w1sZ0uJOVQBLWdCTySW3-24" target="w1sZ0uJOVQBLWdCTySW3-32" edge="1">
          <mxGeometry relative="1" as="geometry" />
        </mxCell>
        <mxCell id="w1sZ0uJOVQBLWdCTySW3-24" value="int score = 0" style="whiteSpace=wrap;html=1;rounded=0;labelBackgroundColor=none;rotation=0;" parent="WIyWlLk6GJQsqaUBKTNV-1" vertex="1">
          <mxGeometry x="421.56" y="488" width="242.88" height="42" as="geometry" />
        </mxCell>
        <mxCell id="w1sZ0uJOVQBLWdCTySW3-35" value="" style="edgeStyle=orthogonalEdgeStyle;rounded=0;orthogonalLoop=1;jettySize=auto;html=1;fontFamily=Helvetica;fontSize=12;fontColor=default;" parent="WIyWlLk6GJQsqaUBKTNV-1" source="w1sZ0uJOVQBLWdCTySW3-32" target="w1sZ0uJOVQBLWdCTySW3-34" edge="1">
          <mxGeometry relative="1" as="geometry" />
        </mxCell>
        <mxCell id="w1sZ0uJOVQBLWdCTySW3-32" value="int stage = 0" style="whiteSpace=wrap;html=1;rounded=0;labelBackgroundColor=none;rotation=0;" parent="WIyWlLk6GJQsqaUBKTNV-1" vertex="1">
          <mxGeometry x="421.56" y="560" width="242.88" height="42" as="geometry" />
        </mxCell>
        <mxCell id="w1sZ0uJOVQBLWdCTySW3-38" value="" style="edgeStyle=orthogonalEdgeStyle;rounded=0;orthogonalLoop=1;jettySize=auto;html=1;fontFamily=Helvetica;fontSize=12;fontColor=default;" parent="WIyWlLk6GJQsqaUBKTNV-1" source="w1sZ0uJOVQBLWdCTySW3-34" target="w1sZ0uJOVQBLWdCTySW3-36" edge="1">
          <mxGeometry relative="1" as="geometry" />
        </mxCell>
        <mxCell id="w1sZ0uJOVQBLWdCTySW3-34" value="while (1)" style="rhombus;whiteSpace=wrap;html=1;rounded=0;labelBackgroundColor=none;" parent="WIyWlLk6GJQsqaUBKTNV-1" vertex="1">
          <mxGeometry x="503" y="632" width="80" height="80" as="geometry" />
        </mxCell>
        <mxCell id="w1sZ0uJOVQBLWdCTySW3-36" value="char chosenChar = takeLetterInput()" style="whiteSpace=wrap;html=1;rounded=0;labelBackgroundColor=none;rotation=0;" parent="WIyWlLk6GJQsqaUBKTNV-1" vertex="1">
          <mxGeometry x="421.56" y="742" width="242.88" height="42" as="geometry" />
        </mxCell>
        <mxCell id="w1sZ0uJOVQBLWdCTySW3-148" value="" style="edgeStyle=orthogonalEdgeStyle;rounded=0;orthogonalLoop=1;jettySize=auto;html=1;fontFamily=Helvetica;fontSize=12;fontColor=default;" parent="WIyWlLk6GJQsqaUBKTNV-1" source="w1sZ0uJOVQBLWdCTySW3-41" target="w1sZ0uJOVQBLWdCTySW3-43" edge="1">
          <mxGeometry relative="1" as="geometry" />
        </mxCell>
        <mxCell id="w1sZ0uJOVQBLWdCTySW3-41" value="int *x = checkChar (chosenChar, chosenWord)" style="whiteSpace=wrap;html=1;rounded=0;labelBackgroundColor=none;rotation=0;" parent="WIyWlLk6GJQsqaUBKTNV-1" vertex="1">
          <mxGeometry x="416.75" y="822" width="260.88" height="42" as="geometry" />
        </mxCell>
        <mxCell id="w1sZ0uJOVQBLWdCTySW3-46" value="" style="edgeStyle=orthogonalEdgeStyle;rounded=0;orthogonalLoop=1;jettySize=auto;html=1;fontFamily=Helvetica;fontSize=12;fontColor=default;" parent="WIyWlLk6GJQsqaUBKTNV-1" source="w1sZ0uJOVQBLWdCTySW3-43" target="w1sZ0uJOVQBLWdCTySW3-45" edge="1">
          <mxGeometry relative="1" as="geometry" />
        </mxCell>
        <mxCell id="w1sZ0uJOVQBLWdCTySW3-149" value="yes" style="edgeLabel;html=1;align=center;verticalAlign=middle;resizable=0;points=[];fontSize=12;fontFamily=Helvetica;fontColor=default;" parent="w1sZ0uJOVQBLWdCTySW3-46" vertex="1" connectable="0">
          <mxGeometry x="-0.5688" y="-2" relative="1" as="geometry">
            <mxPoint as="offset" />
          </mxGeometry>
        </mxCell>
        <mxCell id="5-vpQNmmnJ2SP2pBPLF3-7" value="" style="edgeStyle=orthogonalEdgeStyle;rounded=0;orthogonalLoop=1;jettySize=auto;html=1;" parent="WIyWlLk6GJQsqaUBKTNV-1" source="w1sZ0uJOVQBLWdCTySW3-43" target="5-vpQNmmnJ2SP2pBPLF3-5" edge="1">
          <mxGeometry relative="1" as="geometry" />
        </mxCell>
        <mxCell id="5-vpQNmmnJ2SP2pBPLF3-9" value="no" style="edgeLabel;html=1;align=center;verticalAlign=middle;resizable=0;points=[];" parent="5-vpQNmmnJ2SP2pBPLF3-7" vertex="1" connectable="0">
          <mxGeometry x="-0.0984" y="-1" relative="1" as="geometry">
            <mxPoint as="offset" />
          </mxGeometry>
        </mxCell>
        <mxCell id="w1sZ0uJOVQBLWdCTySW3-43" value="incorrecGuess ?&amp;nbsp;" style="rhombus;whiteSpace=wrap;html=1;rounded=0;labelBackgroundColor=none;" parent="WIyWlLk6GJQsqaUBKTNV-1" vertex="1">
          <mxGeometry x="491" y="918" width="111.6" height="80" as="geometry" />
        </mxCell>
        <mxCell id="w1sZ0uJOVQBLWdCTySW3-63" style="edgeStyle=orthogonalEdgeStyle;rounded=0;orthogonalLoop=1;jettySize=auto;html=1;entryX=0.75;entryY=0;entryDx=0;entryDy=0;fontFamily=Helvetica;fontSize=12;fontColor=default;" parent="WIyWlLk6GJQsqaUBKTNV-1" source="w1sZ0uJOVQBLWdCTySW3-45" target="w1sZ0uJOVQBLWdCTySW3-47" edge="1">
          <mxGeometry relative="1" as="geometry">
            <Array as="points">
              <mxPoint x="736" y="1131" />
              <mxPoint x="577" y="1131" />
            </Array>
          </mxGeometry>
        </mxCell>
        <mxCell id="w1sZ0uJOVQBLWdCTySW3-45" value="stage++" style="whiteSpace=wrap;html=1;rounded=0;labelBackgroundColor=none;" parent="WIyWlLk6GJQsqaUBKTNV-1" vertex="1">
          <mxGeometry x="676.005" y="1046" width="120" height="60" as="geometry" />
        </mxCell>
        <mxCell id="w1sZ0uJOVQBLWdCTySW3-65" value="" style="edgeStyle=orthogonalEdgeStyle;rounded=0;orthogonalLoop=1;jettySize=auto;html=1;fontFamily=Helvetica;fontSize=12;fontColor=default;" parent="WIyWlLk6GJQsqaUBKTNV-1" source="w1sZ0uJOVQBLWdCTySW3-47" target="w1sZ0uJOVQBLWdCTySW3-64" edge="1">
          <mxGeometry relative="1" as="geometry" />
        </mxCell>
        <mxCell id="w1sZ0uJOVQBLWdCTySW3-47" value="hangman (stage)" style="whiteSpace=wrap;html=1;rounded=0;labelBackgroundColor=none;" parent="WIyWlLk6GJQsqaUBKTNV-1" vertex="1">
          <mxGeometry x="486.19500000000005" y="1159" width="120" height="60" as="geometry" />
        </mxCell>
        <mxCell id="w1sZ0uJOVQBLWdCTySW3-67" value="" style="edgeStyle=orthogonalEdgeStyle;rounded=0;orthogonalLoop=1;jettySize=auto;html=1;fontFamily=Helvetica;fontSize=12;fontColor=default;" parent="WIyWlLk6GJQsqaUBKTNV-1" source="w1sZ0uJOVQBLWdCTySW3-64" target="w1sZ0uJOVQBLWdCTySW3-66" edge="1">
          <mxGeometry relative="1" as="geometry" />
        </mxCell>
        <mxCell id="w1sZ0uJOVQBLWdCTySW3-64" value="outputPrinter (chosenWord, mainIndices )" style="whiteSpace=wrap;html=1;rounded=0;labelBackgroundColor=none;" parent="WIyWlLk6GJQsqaUBKTNV-1" vertex="1">
          <mxGeometry x="447.34000000000003" y="1299" width="197.7" height="60" as="geometry" />
        </mxCell>
        <mxCell id="w1sZ0uJOVQBLWdCTySW3-69" value="" style="edgeStyle=orthogonalEdgeStyle;rounded=0;orthogonalLoop=1;jettySize=auto;html=1;fontFamily=Helvetica;fontSize=12;fontColor=default;" parent="WIyWlLk6GJQsqaUBKTNV-1" source="w1sZ0uJOVQBLWdCTySW3-66" edge="1">
          <mxGeometry relative="1" as="geometry">
            <mxPoint x="809.3600000000001" y="1469" as="targetPoint" />
          </mxGeometry>
        </mxCell>
        <mxCell id="w1sZ0uJOVQBLWdCTySW3-78" value="" style="edgeStyle=orthogonalEdgeStyle;rounded=0;orthogonalLoop=1;jettySize=auto;html=1;fontFamily=Helvetica;fontSize=12;fontColor=default;" parent="WIyWlLk6GJQsqaUBKTNV-1" source="w1sZ0uJOVQBLWdCTySW3-66" target="w1sZ0uJOVQBLWdCTySW3-77" edge="1">
          <mxGeometry relative="1" as="geometry" />
        </mxCell>
        <mxCell id="w1sZ0uJOVQBLWdCTySW3-66" value="checkCorrectGuess ()" style="rhombus;whiteSpace=wrap;html=1;rounded=0;labelBackgroundColor=none;" parent="WIyWlLk6GJQsqaUBKTNV-1" vertex="1">
          <mxGeometry x="425.29" y="1429" width="242.71" height="80" as="geometry" />
        </mxCell>
        <mxCell id="Xcquu0Gm_aaz8j_fVN2o-1" style="edgeStyle=orthogonalEdgeStyle;rounded=0;orthogonalLoop=1;jettySize=auto;html=1;exitX=0.5;exitY=1;exitDx=0;exitDy=0;" edge="1" parent="WIyWlLk6GJQsqaUBKTNV-1" source="w1sZ0uJOVQBLWdCTySW3-68">
          <mxGeometry relative="1" as="geometry">
            <mxPoint x="546" y="1596" as="targetPoint" />
          </mxGeometry>
        </mxCell>
        <mxCell id="w1sZ0uJOVQBLWdCTySW3-68" value="display &quot;The answer is correct &quot;" style="whiteSpace=wrap;html=1;rounded=0;labelBackgroundColor=none;" parent="WIyWlLk6GJQsqaUBKTNV-1" vertex="1">
          <mxGeometry x="811" y="1439" width="198.65" height="60" as="geometry" />
        </mxCell>
        <mxCell id="w1sZ0uJOVQBLWdCTySW3-72" value="yes" style="text;strokeColor=none;align=center;fillColor=none;html=1;verticalAlign=middle;whiteSpace=wrap;rounded=0;fontSize=12;fontFamily=Helvetica;fontColor=default;" parent="WIyWlLk6GJQsqaUBKTNV-1" vertex="1">
          <mxGeometry x="669.25" y="1439" width="60" height="30" as="geometry" />
        </mxCell>
        <mxCell id="w1sZ0uJOVQBLWdCTySW3-80" value="" style="edgeStyle=orthogonalEdgeStyle;rounded=0;orthogonalLoop=1;jettySize=auto;html=1;fontFamily=Helvetica;fontSize=12;fontColor=default;" parent="WIyWlLk6GJQsqaUBKTNV-1" source="w1sZ0uJOVQBLWdCTySW3-77" target="w1sZ0uJOVQBLWdCTySW3-79" edge="1">
          <mxGeometry relative="1" as="geometry" />
        </mxCell>
        <mxCell id="5-vpQNmmnJ2SP2pBPLF3-10" value="yes" style="edgeLabel;html=1;align=center;verticalAlign=middle;resizable=0;points=[];" parent="w1sZ0uJOVQBLWdCTySW3-80" vertex="1" connectable="0">
          <mxGeometry x="-0.3756" y="1" relative="1" as="geometry">
            <mxPoint as="offset" />
          </mxGeometry>
        </mxCell>
        <mxCell id="w1sZ0uJOVQBLWdCTySW3-137" style="edgeStyle=orthogonalEdgeStyle;rounded=0;orthogonalLoop=1;jettySize=auto;html=1;exitX=0;exitY=0.5;exitDx=0;exitDy=0;entryX=0;entryY=0.5;entryDx=0;entryDy=0;fontFamily=Helvetica;fontSize=12;fontColor=default;" parent="WIyWlLk6GJQsqaUBKTNV-1" source="w1sZ0uJOVQBLWdCTySW3-77" target="w1sZ0uJOVQBLWdCTySW3-34" edge="1">
          <mxGeometry relative="1" as="geometry">
            <Array as="points">
              <mxPoint x="322" y="1633" />
              <mxPoint x="322" y="672" />
            </Array>
          </mxGeometry>
        </mxCell>
        <mxCell id="5-vpQNmmnJ2SP2pBPLF3-11" value="no" style="edgeLabel;html=1;align=center;verticalAlign=middle;resizable=0;points=[];" parent="w1sZ0uJOVQBLWdCTySW3-137" vertex="1" connectable="0">
          <mxGeometry x="-0.9325" relative="1" as="geometry">
            <mxPoint as="offset" />
          </mxGeometry>
        </mxCell>
        <mxCell id="w1sZ0uJOVQBLWdCTySW3-77" value="stage == 7 ?" style="rhombus;whiteSpace=wrap;html=1;rounded=0;labelBackgroundColor=none;" parent="WIyWlLk6GJQsqaUBKTNV-1" vertex="1">
          <mxGeometry x="499.51" y="1593" width="95.36" height="80" as="geometry" />
        </mxCell>
        <mxCell id="w1sZ0uJOVQBLWdCTySW3-82" value="" style="edgeStyle=orthogonalEdgeStyle;rounded=0;orthogonalLoop=1;jettySize=auto;html=1;fontFamily=Helvetica;fontSize=12;fontColor=default;" parent="WIyWlLk6GJQsqaUBKTNV-1" source="w1sZ0uJOVQBLWdCTySW3-79" target="w1sZ0uJOVQBLWdCTySW3-81" edge="1">
          <mxGeometry relative="1" as="geometry" />
        </mxCell>
        <mxCell id="w1sZ0uJOVQBLWdCTySW3-79" value="Score = Score - 10" style="whiteSpace=wrap;html=1;rounded=0;labelBackgroundColor=none;" parent="WIyWlLk6GJQsqaUBKTNV-1" vertex="1">
          <mxGeometry x="662.55" y="1603" width="120" height="60" as="geometry" />
        </mxCell>
        <mxCell id="w1sZ0uJOVQBLWdCTySW3-84" value="" style="edgeStyle=orthogonalEdgeStyle;rounded=0;orthogonalLoop=1;jettySize=auto;html=1;fontFamily=Helvetica;fontSize=12;fontColor=default;" parent="WIyWlLk6GJQsqaUBKTNV-1" source="w1sZ0uJOVQBLWdCTySW3-81" target="w1sZ0uJOVQBLWdCTySW3-83" edge="1">
          <mxGeometry relative="1" as="geometry" />
        </mxCell>
        <mxCell id="w1sZ0uJOVQBLWdCTySW3-81" value="gameOver (Score)" style="whiteSpace=wrap;html=1;rounded=0;labelBackgroundColor=none;" parent="WIyWlLk6GJQsqaUBKTNV-1" vertex="1">
          <mxGeometry x="662.55" y="1743" width="120" height="60" as="geometry" />
        </mxCell>
        <mxCell id="w1sZ0uJOVQBLWdCTySW3-138" style="edgeStyle=orthogonalEdgeStyle;rounded=0;orthogonalLoop=1;jettySize=auto;html=1;entryX=0.5;entryY=0;entryDx=0;entryDy=0;fontFamily=Helvetica;fontSize=12;fontColor=default;" parent="WIyWlLk6GJQsqaUBKTNV-1" source="w1sZ0uJOVQBLWdCTySW3-83" target="w1sZ0uJOVQBLWdCTySW3-87" edge="1">
          <mxGeometry relative="1" as="geometry">
            <Array as="points">
              <mxPoint x="723" y="1971" />
              <mxPoint x="540" y="1971" />
            </Array>
          </mxGeometry>
        </mxCell>
        <mxCell id="w1sZ0uJOVQBLWdCTySW3-83" value="break" style="whiteSpace=wrap;html=1;rounded=0;labelBackgroundColor=none;" parent="WIyWlLk6GJQsqaUBKTNV-1" vertex="1">
          <mxGeometry x="662.55" y="1883" width="120" height="60" as="geometry" />
        </mxCell>
        <mxCell id="w1sZ0uJOVQBLWdCTySW3-139" value="" style="edgeStyle=orthogonalEdgeStyle;rounded=0;orthogonalLoop=1;jettySize=auto;html=1;fontFamily=Helvetica;fontSize=12;fontColor=default;" parent="WIyWlLk6GJQsqaUBKTNV-1" source="w1sZ0uJOVQBLWdCTySW3-87" target="w1sZ0uJOVQBLWdCTySW3-95" edge="1">
          <mxGeometry relative="1" as="geometry" />
        </mxCell>
        <mxCell id="5-vpQNmmnJ2SP2pBPLF3-12" value="yes" style="edgeLabel;html=1;align=center;verticalAlign=middle;resizable=0;points=[];" parent="w1sZ0uJOVQBLWdCTySW3-139" vertex="1" connectable="0">
          <mxGeometry x="-0.1728" y="1" relative="1" as="geometry">
            <mxPoint as="offset" />
          </mxGeometry>
        </mxCell>
        <mxCell id="w1sZ0uJOVQBLWdCTySW3-140" style="edgeStyle=orthogonalEdgeStyle;rounded=0;orthogonalLoop=1;jettySize=auto;html=1;exitX=0.5;exitY=1;exitDx=0;exitDy=0;entryX=0;entryY=0.5;entryDx=0;entryDy=0;fontFamily=Helvetica;fontSize=12;fontColor=default;" parent="WIyWlLk6GJQsqaUBKTNV-1" source="w1sZ0uJOVQBLWdCTySW3-87" target="w1sZ0uJOVQBLWdCTySW3-16" edge="1">
          <mxGeometry relative="1" as="geometry">
            <Array as="points">
              <mxPoint x="540" y="2099" />
              <mxPoint x="196" y="2099" />
              <mxPoint x="196" y="418" />
            </Array>
          </mxGeometry>
        </mxCell>
        <mxCell id="5-vpQNmmnJ2SP2pBPLF3-13" value="no" style="edgeLabel;html=1;align=center;verticalAlign=middle;resizable=0;points=[];" parent="w1sZ0uJOVQBLWdCTySW3-140" vertex="1" connectable="0">
          <mxGeometry x="-0.9043" y="3" relative="1" as="geometry">
            <mxPoint as="offset" />
          </mxGeometry>
        </mxCell>
        <mxCell id="w1sZ0uJOVQBLWdCTySW3-87" value="!(wannaPlayAgain()) ?" style="rhombus;whiteSpace=wrap;html=1;rounded=0;labelBackgroundColor=none;" parent="WIyWlLk6GJQsqaUBKTNV-1" vertex="1">
          <mxGeometry x="462" y="1999" width="155.56" height="80" as="geometry" />
        </mxCell>
        <mxCell id="w1sZ0uJOVQBLWdCTySW3-92" style="edgeStyle=orthogonalEdgeStyle;rounded=0;orthogonalLoop=1;jettySize=auto;html=1;entryX=0.484;entryY=-0.04;entryDx=0;entryDy=0;entryPerimeter=0;fontFamily=Helvetica;fontSize=12;fontColor=default;" parent="WIyWlLk6GJQsqaUBKTNV-1" source="w1sZ0uJOVQBLWdCTySW3-36" target="w1sZ0uJOVQBLWdCTySW3-41" edge="1">
          <mxGeometry relative="1" as="geometry" />
        </mxCell>
        <mxCell id="w1sZ0uJOVQBLWdCTySW3-98" value="" style="edgeStyle=orthogonalEdgeStyle;rounded=0;orthogonalLoop=1;jettySize=auto;html=1;fontFamily=Helvetica;fontSize=12;fontColor=default;" parent="WIyWlLk6GJQsqaUBKTNV-1" source="w1sZ0uJOVQBLWdCTySW3-95" target="w1sZ0uJOVQBLWdCTySW3-97" edge="1">
          <mxGeometry relative="1" as="geometry" />
        </mxCell>
        <mxCell id="w1sZ0uJOVQBLWdCTySW3-95" value="gameOver (Score)" style="whiteSpace=wrap;html=1;rounded=0;labelBackgroundColor=none;" parent="WIyWlLk6GJQsqaUBKTNV-1" vertex="1">
          <mxGeometry x="715.3399999999999" y="2009" width="120" height="60" as="geometry" />
        </mxCell>
        <mxCell id="w1sZ0uJOVQBLWdCTySW3-142" style="edgeStyle=orthogonalEdgeStyle;rounded=0;orthogonalLoop=1;jettySize=auto;html=1;fontFamily=Helvetica;fontSize=12;fontColor=default;exitX=0.571;exitY=1.084;exitDx=0;exitDy=0;exitPerimeter=0;" parent="WIyWlLk6GJQsqaUBKTNV-1" source="w1sZ0uJOVQBLWdCTySW3-97" target="w1sZ0uJOVQBLWdCTySW3-141" edge="1">
          <mxGeometry relative="1" as="geometry">
            <Array as="points">
              <mxPoint x="784" y="2251" />
              <mxPoint x="535" y="2251" />
            </Array>
          </mxGeometry>
        </mxCell>
        <mxCell id="w1sZ0uJOVQBLWdCTySW3-97" value="break" style="whiteSpace=wrap;html=1;rounded=0;labelBackgroundColor=none;" parent="WIyWlLk6GJQsqaUBKTNV-1" vertex="1">
          <mxGeometry x="715.3399999999999" y="2149" width="120" height="60" as="geometry" />
        </mxCell>
        <mxCell id="w1sZ0uJOVQBLWdCTySW3-141" value="END" style="ellipse;whiteSpace=wrap;html=1;rounded=0;labelBackgroundColor=none;strokeColor=default;align=center;verticalAlign=middle;fontFamily=Helvetica;fontSize=12;fontColor=default;fillColor=default;" parent="WIyWlLk6GJQsqaUBKTNV-1" vertex="1">
          <mxGeometry x="474.87" y="2279" width="120" height="80" as="geometry" />
        </mxCell>
        <mxCell id="w1sZ0uJOVQBLWdCTySW3-145" value="" style="edgeStyle=orthogonalEdgeStyle;rounded=0;orthogonalLoop=1;jettySize=auto;html=1;fontFamily=Helvetica;fontSize=12;fontColor=default;" parent="WIyWlLk6GJQsqaUBKTNV-1" source="w1sZ0uJOVQBLWdCTySW3-143" target="w1sZ0uJOVQBLWdCTySW3-0" edge="1">
          <mxGeometry relative="1" as="geometry" />
        </mxCell>
        <mxCell id="w1sZ0uJOVQBLWdCTySW3-143" value="START" style="ellipse;whiteSpace=wrap;html=1;rounded=0;labelBackgroundColor=none;strokeColor=default;align=center;verticalAlign=middle;fontFamily=Helvetica;fontSize=12;fontColor=default;fillColor=default;" parent="WIyWlLk6GJQsqaUBKTNV-1" vertex="1">
          <mxGeometry x="483" y="-112" width="120" height="80" as="geometry" />
        </mxCell>
        <mxCell id="Xcquu0Gm_aaz8j_fVN2o-2" style="edgeStyle=orthogonalEdgeStyle;rounded=0;orthogonalLoop=1;jettySize=auto;html=1;exitX=0.5;exitY=1;exitDx=0;exitDy=0;entryX=0.5;entryY=0;entryDx=0;entryDy=0;" edge="1" parent="WIyWlLk6GJQsqaUBKTNV-1" source="5-vpQNmmnJ2SP2pBPLF3-3" target="w1sZ0uJOVQBLWdCTySW3-16">
          <mxGeometry relative="1" as="geometry" />
        </mxCell>
        <mxCell id="5-vpQNmmnJ2SP2pBPLF3-3" value="int mainIndices = []" style="whiteSpace=wrap;html=1;rounded=0;align=center;labelBackgroundColor=none;" parent="WIyWlLk6GJQsqaUBKTNV-1" vertex="1">
          <mxGeometry x="416.75" y="308" width="252.5" height="40" as="geometry" />
        </mxCell>
        <mxCell id="5-vpQNmmnJ2SP2pBPLF3-8" value="" style="edgeStyle=orthogonalEdgeStyle;rounded=0;orthogonalLoop=1;jettySize=auto;html=1;" parent="WIyWlLk6GJQsqaUBKTNV-1" source="5-vpQNmmnJ2SP2pBPLF3-5" target="w1sZ0uJOVQBLWdCTySW3-47" edge="1">
          <mxGeometry relative="1" as="geometry" />
        </mxCell>
        <mxCell id="5-vpQNmmnJ2SP2pBPLF3-5" value="addNewIndicesToMainIndices()" style="whiteSpace=wrap;html=1;rounded=0;labelBackgroundColor=none;" parent="WIyWlLk6GJQsqaUBKTNV-1" vertex="1">
          <mxGeometry x="452.94" y="1046" width="186.06" height="46" as="geometry" />
        </mxCell>
      </root>
    </mxGraphModel>
  </diagram>
</mxfile>
